<?xml version="1.0" standalone="no"?>
<!DOCTYPE svg PUBLIC "-//W3C//DTD SVG 20010904//EN"
 "http://www.w3.org/TR/2001/REC-SVG-20010904/DTD/svg10.dtd">
<svg version="1.0" xmlns="http://www.w3.org/2000/svg"
 width="750.000000pt" height="750.000000pt" viewBox="0 0 750.000000 750.000000"
 preserveAspectRatio="xMidYMid meet">

<g transform="translate(0.000000,750.000000) scale(0.100000,-0.100000)"
fill="#000000" stroke="none">
<path d="M4060 6811 c-105 -32 -180 -128 -180 -230 l0 -31 85 0 c71 0 85 3 85
16 0 26 63 81 105 93 24 6 137 11 283 11 229 0 243 -1 262 -20 13 -13 20 -33
20 -58 0 -21 7 -48 16 -60 l15 -22 559 0 559 0 15 22 c9 12 16 39 16 60 0 25
7 45 21 59 20 20 29 20 277 17 274 -3 279 -4 335 -56 60 -57 57 76 57 -2274
l0 -2149 -29 -57 c-16 -31 -34 -76 -41 -100 -7 -23 -15 -41 -17 -39 -2 2 -8
50 -13 106 -11 112 -53 256 -96 325 -28 45 -27 41 10 -50 51 -122 60 -177 61
-364 0 -96 -4 -199 -8 -227 l-8 -53 38 0 c28 0 45 8 71 33 l34 32 -7 -32 c-5
-28 -3 -32 17 -35 21 -3 24 -11 39 -118 9 -63 17 -117 18 -119 3 -11 59 77 70
108 7 23 11 142 11 362 l0 329 -24 -10 c-54 -20 -52 55 3 104 l21 19 0 2111
c0 2102 -1 2111 -21 2156 -25 55 -62 95 -114 123 l-40 22 -1240 2 c-682 1
-1251 -2 -1265 -6z m1400 -186 c0 -13 -23 -15 -150 -15 -127 0 -150 2 -150 15
0 13 23 15 150 15 127 0 150 -2 150 -15z m1092 -4737 c-22 -46 -45 -94 -51
-108 -11 -24 -11 -23 -6 9 3 18 5 46 5 61 0 25 77 136 88 126 2 -3 -14 -42
-36 -88z"/>
<path d="M3898 6423 c-17 -4 -18 -24 -18 -234 l0 -229 75 0 75 0 0 229 0 229
-22 6 c-26 6 -84 6 -110 -1z"/>
<path d="M3891 5584 c-26 -21 -31 -33 -31 -68 0 -29 7 -49 21 -64 l20 -22 -20
-95 c-12 -52 -21 -99 -21 -105 0 -6 38 -10 96 -10 81 0 95 2 90 15 -3 8 -13
55 -23 105 -15 82 -15 91 -1 107 41 45 29 122 -23 148 -41 22 -74 18 -108 -11z"/>
<path d="M1883 5039 c-107 -53 -152 -174 -102 -275 34 -72 100 -117 203 -139
l29 -6 -50 -34 c-95 -64 -148 -150 -183 -298 -37 -161 -59 -199 -202 -354
-149 -160 -187 -260 -193 -508 l-4 -130 9 110 c10 133 33 243 64 310 25 55 98
155 141 195 21 20 17 10 -18 -46 -69 -107 -113 -200 -136 -289 -25 -94 -37
-228 -27 -307 l7 -55 56 -7 56 -7 55 49 c31 26 60 61 65 78 21 71 50 144 57
144 4 0 11 -24 14 -54 l7 -54 63 39 c38 23 80 41 108 45 46 6 47 6 62 -30 48
-115 160 -231 246 -256 28 -8 33 -6 50 22 10 17 26 62 35 99 l17 69 37 -29
c20 -16 68 -58 106 -93 134 -122 126 -118 219 -118 l83 0 12 43 c21 77 32 151
38 260 3 59 10 104 14 100 9 -10 46 -234 55 -335 6 -75 7 -76 37 -82 16 -3 45
-6 63 -6 l34 0 0 78 c0 42 -4 94 -9 114 -18 76 7 26 40 -81 33 -109 34 -109
67 -113 18 -2 36 0 39 5 11 18 3 254 -12 338 -20 118 -46 193 -125 359 -38 80
-72 159 -75 175 -3 18 2 10 14 -20 11 -27 46 -93 76 -145 134 -228 172 -338
183 -530 l6 -115 8 65 c15 125 -21 321 -81 439 -11 20 -53 92 -94 159 -85 139
-134 269 -122 324 3 18 9 74 12 124 6 104 -12 191 -53 261 -69 118 -238 216
-394 230 -97 8 -168 -9 -319 -74 -10 -5 -12 1 -6 28 4 19 7 65 7 104 -2 96
-44 184 -106 220 -54 32 -124 33 -183 4z m130 -13 c50 -18 74 -41 102 -96 24
-47 46 -143 44 -189 -1 -15 -5 -5 -9 21 -5 25 -21 74 -36 108 -35 79 -88 125
-163 142 -52 12 -54 13 -26 19 44 10 46 9 88 -5z m126 -553 c47 -15 87 -28 89
-29 5 -3 -47 -104 -53 -104 -8 0 -155 111 -155 117 0 10 21 43 27 43 4 0 45
-12 92 -27z m-61 -109 c37 -31 68 -60 70 -64 1 -4 -17 -24 -42 -44 l-45 -36
-49 82 c-44 75 -48 85 -34 101 8 9 19 17 24 17 5 0 40 -25 76 -56z m849 -356
c-3 -8 -6 -5 -6 6 -1 11 2 17 5 13 3 -3 4 -12 1 -19z"/>
<path d="M2060 4464 c0 -14 100 -75 110 -69 22 13 8 34 -32 48 -24 8 -51 18
-60 22 -10 4 -18 3 -18 -1z"/>
<path d="M2000 4383 c0 -5 16 -32 36 -61 29 -44 38 -51 50 -41 20 17 19 20
-36 67 -28 24 -50 39 -50 35z"/>
<path d="M3880 4454 l0 -525 -72 -139 -73 -138 -43 -5 c-81 -9 -116 -73 -72
-130 29 -37 25 -44 -31 -51 -91 -12 -125 -74 -74 -134 14 -17 25 -33 25 -36 0
-3 -16 -12 -35 -20 -40 -17 -61 -58 -47 -90 5 -11 51 -43 103 -71 l94 -52 -4
-89 c-3 -87 -4 -90 -42 -134 -22 -25 -107 -125 -190 -223 -83 -98 -158 -181
-166 -184 -35 -14 -133 59 -306 226 -53 52 -99 92 -101 90 -2 -2 -27 -33 -55
-67 l-50 -64 -26 58 -25 57 46 61 47 61 -52 -50 c-58 -56 -56 -57 -97 35 -48
106 -55 118 -49 90 5 -24 5 -24 -9 -5 -42 57 -42 53 0 -25 183 -341 198 -475
79 -735 -31 -69 -32 -75 -21 -124 19 -85 193 -310 306 -395 65 -48 102 -59
254 -76 116 -13 198 -2 281 40 74 37 203 141 317 254 l86 86 4 -177 c2 -145 6
-184 20 -209 25 -46 77 -94 123 -115 39 -18 32 -19 -456 -19 l-497 0 -43 67
c-96 149 -327 336 -495 401 -149 57 -251 69 -779 98 -159 8 -292 17 -295 20
-5 5 88 280 143 425 l25 65 -242 43 c-132 23 -248 44 -257 47 -25 7 -205 -289
-338 -554 -128 -256 -191 -438 -191 -553 0 -76 11 -98 69 -137 102 -70 245
-95 676 -118 259 -14 311 -19 382 -40 145 -43 248 -50 410 -28 41 6 41 5 69
-43 126 -218 257 -363 330 -363 53 0 68 61 39 155 -8 27 -13 50 -12 52 2 1 22
-26 45 -60 49 -73 66 -93 110 -129 80 -66 136 -5 110 122 l-7 35 22 -29 c45
-60 91 -108 119 -122 33 -17 74 -9 88 16 14 27 12 120 -4 173 l-14 46 57 -59
c68 -72 101 -78 130 -23 36 69 -10 228 -137 476 -2 4 701 7 1561 7 l1565 0 12
73 c6 39 13 78 15 84 3 10 -214 13 -1030 15 l-1033 3 -43 30 c-27 19 -54 50
-71 84 -28 53 -28 55 -28 237 l0 184 64 86 c97 132 181 277 246 427 95 218
102 251 110 542 7 264 9 274 63 381 65 129 27 211 -73 159 -17 -9 -30 -13 -30
-9 0 19 88 165 105 173 11 5 14 10 8 10 -7 1 -13 8 -13 16 0 21 -13 25 -262
86 l-218 53 0 463 0 463 -75 0 -75 0 0 -526z"/>
<path d="M4331 4308 c-1 -33 2 -38 22 -37 16 1 18 2 5 6 -21 5 -24 23 -5 23 8
0 9 3 1 8 -6 4 -14 14 -17 22 -3 8 -6 -2 -6 -22z"/>
<path d="M4583 4305 c0 -22 2 -30 4 -17 2 12 2 30 0 40 -3 9 -5 -1 -4 -23z"/>
<path d="M4391 4298 c1 -17 2 -19 6 -5 6 24 21 21 26 -5 l4 -23 2 23 c1 26 18
29 24 5 4 -14 5 -12 6 5 1 19 -4 22 -34 22 -30 0 -35 -3 -34 -22z"/>
<path d="M4484 4309 c-7 -13 9 -32 31 -35 10 -1 15 6 15 22 0 17 -6 24 -19 24
-11 0 -23 -5 -27 -11z m34 -10 c-2 -6 -8 -10 -13 -10 -5 0 -11 4 -13 10 -2 6
4 11 13 11 9 0 15 -5 13 -11z"/>
<path d="M4552 4300 c0 -14 2 -19 5 -12 2 6 2 18 0 25 -3 6 -5 1 -5 -13z"/>
<path d="M4764 3897 c-25 -25 -21 -47 7 -47 15 0 19 7 19 35 0 41 1 40 -26 12z
m16 -22 c0 -8 -4 -15 -9 -15 -13 0 -22 16 -14 24 11 11 23 6 23 -9z"/>
<path d="M4644 3885 c-7 -18 3 -35 21 -35 18 0 26 25 12 39 -15 15 -27 14 -33
-4z m28 -10 c0 -5 -5 -11 -11 -13 -6 -2 -11 4 -11 13 0 9 5 15 11 13 6 -2 11
-8 11 -13z"/>
<path d="M4712 3891 c-8 -5 -12 -16 -10 -25 2 -12 6 -10 15 9 6 14 10 25 10
25 -1 0 -8 -4 -15 -9z"/>
<path d="M4560 3885 c0 -16 14 -31 28 -30 6 0 12 5 12 10 0 6 -6 10 -12 10 -7
0 -16 5 -20 10 -5 7 -8 7 -8 0z"/>
<path d="M4519 3872 c12 -8 11 -11 -3 -15 -15 -4 -15 -5 1 -3 19 1 21 19 1 24
-10 3 -10 1 1 -6z"/>
<path d="M5233 3383 c42 -2 112 -2 155 0 42 1 7 3 -78 3 -85 0 -120 -2 -77 -3z"/>
<path d="M2490 3041 c0 -6 4 -13 10 -16 6 -3 7 1 4 9 -7 18 -14 21 -14 7z"/>
<path d="M1812 2803 c-17 -49 -45 -136 -63 -195 -26 -86 -37 -108 -53 -111
-17 -3 -16 -5 5 -6 25 -1 28 5 78 156 29 87 61 169 70 183 32 46 36 56 13 37
-20 -18 -20 -18 -15 2 3 12 3 21 0 21 -2 0 -18 -39 -35 -87z"/>
<path d="M1135 2719 c57 -17 538 -110 554 -107 21 4 -278 72 -432 98 -125 21
-173 25 -122 9z"/>
<path d="M5273 2673 c9 -2 17 -11 17 -20 0 -10 -6 -13 -17 -8 -15 5 -16 4 -5
-6 9 -10 15 -10 23 -2 16 16 4 43 -18 42 -17 -1 -17 -2 0 -6z"/>
<path d="M5320 2655 c0 -14 2 -25 4 -25 2 0 6 11 8 25 3 14 1 25 -3 25 -5 0
-9 -11 -9 -25z"/>
<path d="M5230 2440 c0 -79 0 -80 25 -80 21 0 25 5 25 30 0 17 -4 30 -10 30
-5 0 -10 7 -10 15 0 8 4 15 9 15 5 0 11 10 13 23 4 26 48 39 48 14 0 -9 -6
-18 -12 -21 -10 -5 -10 -7 0 -12 14 -7 16 -34 2 -34 -5 0 -10 -13 -10 -30 0
-28 3 -30 35 -30 l35 0 0 80 0 80 -75 0 -75 0 0 -80z"/>
<path d="M6289 2200 c68 -110 107 -241 126 -412 10 -90 29 -73 21 17 -14 156
-82 341 -156 425 -27 32 -27 29 9 -30z"/>
<path d="M2135 2129 c-123 -26 -288 -78 -251 -78 15 -1 71 11 122 25 52 14
141 36 197 49 74 17 91 24 62 24 -22 0 -80 -9 -130 -20z"/>
<path d="M2155 2080 c-54 -10 177 -10 270 0 56 5 40 7 -80 7 -82 0 -168 -3
-190 -7z"/>
<path d="M6200 2053 c0 -4 16 -56 36 -116 44 -132 97 -207 145 -207 26 0 29 3
25 20 -3 11 -9 30 -12 43 -10 38 -65 140 -95 178 -30 39 -99 95 -99 82z"/>
</g>
</svg>
